<?xml version="1.0" standalone="no"?>
<!DOCTYPE svg PUBLIC "-//W3C//DTD SVG 20010904//EN"
 "http://www.w3.org/TR/2001/REC-SVG-20010904/DTD/svg10.dtd">
<svg version="1.0" xmlns="http://www.w3.org/2000/svg"
 width="128.000000pt" height="128.000000pt" viewBox="0 0 128.000000 128.000000"
 preserveAspectRatio="xMidYMid meet">

<g transform="translate(0.000000,128.000000) scale(0.100000,-0.100000)"
fill="#000000" stroke="none">
<path d="M278 1190 c-64 -12 -128 -59 -162 -120 l-31 -55 0 -370 c0 -411 1
-418 64 -482 76 -79 70 -78 486 -78 417 0 419 0 489 71 71 70 71 72 71 489 l0
370 -31 55 c-36 65 -107 114 -180 124 -63 8 -659 6 -706 -4z m514 -90 c195
-60 331 -249 331 -460 0 -272 -211 -482 -483 -482 -272 0 -483 210 -483 482 0
333 313 560 635 460z"/>
<path d="M608 1053 c-2 -5 -1 -24 3 -43 l6 -35 2 43 c1 39 -3 52 -11 35z"/>
<path d="M645 1049 c-4 -6 -4 -13 -1 -16 3 -4 6 -1 6 6 0 8 8 11 20 8 11 -3
18 -1 14 4 -7 12 -31 11 -39 -2z"/>
<path d="M662 1007 c-29 -31 -28 -37 6 -36 24 2 25 2 4 6 l-24 5 23 24 c12 13
20 24 17 24 -2 0 -14 -10 -26 -23z"/>
<path d="M418 993 c-2 -5 -1 -24 3 -43 l6 -35 2 43 c1 39 -3 52 -11 35z"/>
<path d="M465 990 c-3 -5 -2 -10 4 -10 5 0 12 -15 14 -32 3 -29 4 -27 5 10 2
39 -9 55 -23 32z"/>
<path d="M820 990 c-9 -6 -10 -10 -3 -10 6 0 14 -15 16 -32 3 -29 4 -27 5 10
1 23 1 42 0 42 -2 0 -10 -5 -18 -10z"/>
<path d="M330 866 c0 -2 7 -7 16 -10 8 -3 12 -2 9 4 -6 10 -25 14 -25 6z"/>
<path d="M970 863 c17 -8 11 -37 -10 -51 -28 -17 -25 -32 8 -31 l27 1 -25 7
-25 7 23 13 c25 13 28 52 4 57 -7 1 -8 0 -2 -3z"/>
<path d="M278 853 c-2 -5 -1 -24 3 -43 l6 -35 2 43 c1 39 -3 52 -11 35z"/>
<path d="M312 827 c-2 -40 19 -60 40 -39 8 8 5 9 -10 5 -18 -4 -21 0 -25 34
l-4 38 -1 -38z"/>
<path d="M361 824 c0 -11 3 -14 6 -6 3 7 2 16 -1 19 -3 4 -6 -2 -5 -13z"/>
<path d="M462 716 c10 -7 47 -26 83 -42 35 -16 65 -32 65 -35 0 -3 -61 -32
-135 -63 -74 -32 -135 -62 -135 -67 0 -10 7 -7 172 65 58 25 113 44 120 41 8
-3 21 1 28 10 16 19 -2 45 -28 38 -9 -2 -52 12 -94 31 -80 37 -105 45 -76 22z"/>
<path d="M258 673 c19 -4 22 -10 18 -39 -2 -22 0 -32 6 -26 5 5 8 22 6 38 -2
23 -8 29 -28 31 -22 1 -23 1 -2 -4z"/>
<path d="M1025 662 c0 -9 4 -23 9 -30 4 -6 4 -18 0 -24 -5 -9 -4 -10 3 -3 12
11 6 75 -6 75 -4 0 -7 -8 -6 -18z"/>
<path d="M230 651 c0 -6 4 -13 10 -16 6 -3 7 1 4 9 -7 18 -14 21 -14 7z"/>
<path d="M287 483 c-3 -5 8 -8 23 -8 15 0 26 3 23 8 -2 4 -13 7 -23 7 -10 0
-21 -3 -23 -7z"/>
<path d="M969 473 c-10 -11 -10 -14 -1 -9 8 5 12 0 12 -13 0 -12 -7 -21 -16
-21 -9 0 -12 5 -8 12 4 7 3 8 -4 4 -19 -12 -14 -23 13 -28 23 -5 25 -2 25 33
0 44 -2 46 -21 22z"/>
<path d="M286 443 c-4 -9 -2 -21 3 -26 6 -6 9 -2 8 9 -1 11 4 19 13 19 9 0 14
-8 13 -19 -1 -11 2 -15 8 -9 14 14 0 43 -21 43 -10 0 -21 -8 -24 -17z"/>
<path d="M443 343 c9 -2 15 -9 12 -14 -10 -15 1 -10 15 6 11 13 8 15 -16 14
-17 -1 -22 -3 -11 -6z"/>
<path d="M838 312 c9 -10 19 -17 21 -16 6 5 -20 34 -30 34 -5 0 -1 -8 9 -18z"/>
<path d="M622 298 c-7 -7 -12 -23 -12 -37 0 -23 1 -24 13 -6 8 10 19 15 25 11
20 -12 13 -34 -10 -39 l-23 -4 23 -2 c12 0 25 6 28 14 8 20 -15 47 -33 40 -9
-3 -13 0 -10 7 2 7 11 12 20 12 9 -1 14 2 11 7 -7 12 -18 11 -32 -3z"/>
<path d="M808 278 c6 -6 18 -8 28 -6 14 3 12 5 -9 10 -19 3 -25 2 -19 -4z"/>
</g>
</svg>
